<?xml version="1.0" encoding="UTF-8"?>
<svg id="Camada_1" data-name="Camada 1" xmlns="http://www.w3.org/2000/svg" viewBox="0 0 1080 1080">
  <defs>
    <style>.cls-1{fill:#afa17d;}</style>
  </defs>
  <path class="cls-1" d="M735.08,158.37l-390.99.04c-28.46,0-39.28-73.99-39.94-108.33l471.69-.03c-.69,32.14-5.02,63.3-16.39,90.13-3.98,9.4-14.8,18.2-24.37,18.2Z"/>
  <g id="pB5Fqj">
    <g>
      <polygon class="cls-1" points="665.14 321.53 413.94 321.62 287.93 539.36 141.83 539.21 340.18 193.39 739.17 193.31 938.17 538.83 791.45 539.77 665.14 321.53"/>
      <path class="cls-1" d="M539.78,536.02l-148.09,255.37-104.91.49-70.65-124.08c40.69-2.26,64.46-2.77,101.21-2.93l126.31-217.93,192.23-.11,126,217.65,102.75,1.32-72.4,126.65-104.89-.8-147.56-255.63Z"/>
    </g>
  </g>
  <path class="cls-1" d="M682.54,820.88c-13.65,15.16-24.43,26.74-28.05,30.24-34,32.86-71.93,58.86-113.56,82.4-.26.15-.57.23-.57.23-1.55.52-2.93.09-3.2,0,0,0-.33-.08-.61-.24-69.86-41.43-113.56-82.4-113.56-82.4,0,0-14.22-13.5-29.89-30.24h-104.97c26.15,40.88,57.85,78.15,95.27,111.69,45.07,40.39,96.25,72.74,153.46,97.07.4.14,1.06.32,1.9.32.81,0,1.45-.18,1.85-.32,25.15-10.64,57.26-26.37,91.81-49.34,21.68-14.42,42.23-30.33,61.65-47.73,37.43-33.55,69.15-70.81,95.31-111.69h-106.85Z"/>
</svg>
